<svg width="18" height="18" viewBox="0 0 18 18" fill="none" xmlns="http://www.w3.org/2000/svg">
<path d="M11.625 1.5H6.45C6.15 1.5 5.85 1.65 5.625 1.875C5.4 2.1 5.25 2.4 5.25 2.7V12.3C5.25 12.6 5.4 12.9 5.625 13.125C5.85 13.35 6.15 13.5 6.45 13.5H13.8C14.1 13.5 14.4 13.35 14.625 13.125C14.85 12.9 15 12.6 15 12.3V4.875L11.625 1.5Z" stroke="#0069A3" stroke-width="1.05" stroke-linecap="round" stroke-linejoin="round"/>
<path d="M2.25 5.70001V15.3C2.25 15.6 2.4 15.9 2.625 16.125C2.85 16.35 3.15 16.5 3.45 16.5H10.8" stroke="#0069A3" stroke-width="1.05" stroke-linecap="round" stroke-linejoin="round"/>
<path d="M11.25 1.5V5.25H15" stroke="#0069A3" stroke-width="1.05" stroke-linecap="round" stroke-linejoin="round"/>
</svg>
